# xmcd
#
# Track frame offsets: 
#        150
#        21207
#        49877
#        75772
#        102137
#        130394
#        168681
#        196166
#        217142
#        247254
#        265205
#
# Disc length: 3993 seconds
#
# Revision: 1
# Processed by: cddbd v1.5.2PL0 Copyright (c) Steve Scherf et al.
# Submitted via: ExactAudioCopy v0.99pb5
#
DISCID=9b0f970b
DTITLE=Trio Derome Guilbeaut Tanguay - The Feeling Of Jazz
DYEAR=2005
DGENRE=Jazz
TTITLE0=Jump For Joy
TTITLE1=The Feeling of Jazz
TTITLE2=Sonny's Crib
TTITLE3=Five O'Clock Whistle
TTITLE4=You'd Be So Nice to Come Home to
TTITLE5=Jitterbug Waltz
TTITLE6=A Bit Nervous
TTITLE7=It's You or No One - It's You
TTITLE8=I Won't Dance
TTITLE9=Rollo II
TTITLE10=Getting Some Fun Out of Life
EXTD=
EXTT0=
EXTT1=
EXTT2=
EXTT3=
EXTT4=
EXTT5=
EXTT6=
EXTT7=
EXTT8=
EXTT9=
EXTT10=
PLAYORDER=
